<?xml version="1.0" standalone="no"?>
<svg version="1.0" xmlns="http://www.w3.org/2000/svg"
 width="100.000000pt" height="102.000000pt" viewBox="0 0 100.000000 102.000000"
 preserveAspectRatio="xMidYMid meet">

<g transform="translate(0.000000,102.000000) scale(0.100000,-0.100000)"
fill="#163E6C" stroke="none">
<path d="M602 877 c-27 -29 -52 -89 -52 -126 0 -21 -6 -32 -20 -36 -19 -6 -20
-15 -20 -252 0 -229 1 -245 18 -238 77 30 256 30 327 1 21 -9 39 -16 41 -16 2
0 4 108 4 240 l0 240 -28 18 c-19 12 -26 24 -24 41 5 33 -24 103 -53 131 -22
20 -27 22 -55 10 -27 -11 -30 -16 -28 -54 2 -31 -1 -41 -12 -41 -11 0 -14 10
-12 41 2 35 -1 42 -23 52 -35 16 -38 15 -63 -11z m41 -50 c-2 -12 0 -34 5 -48
9 -22 16 -25 53 -24 35 1 44 5 51 25 5 14 7 35 5 48 -5 27 4 28 27 3 39 -43
26 -132 -24 -164 -18 -11 -20 -23 -20 -159 l0 -148 -40 0 -40 0 0 148 c0 136
-2 148 -20 159 -50 32 -63 121 -24 164 23 25 32 24 27 -4z"/>
<path d="M155 728 c-67 -24 -65 -17 -65 -279 l0 -238 43 15 c64 23 191 28 270
12 l67 -15 0 242 0 242 -27 13 c-36 18 -247 24 -288 8z"/>
<path d="M190 199 c-78 -15 -100 -28 -100 -60 l0 -28 38 17 c50 23 268 23 327
0 36 -13 43 -13 75 1 52 23 280 22 333 -1 l38 -18 -3 28 c-4 34 -37 51 -130
65 -78 12 -195 0 -245 -25 -23 -11 -35 -12 -49 -5 -57 32 -190 44 -284 26z"/>
</g>
</svg>
