<?xml version="1.0" standalone="no"?>
<svg version="1.0" xmlns="http://www.w3.org/2000/svg"
 width="100.000000pt" height="100.000000pt" viewBox="0 0 100.000000 100.000000"
 preserveAspectRatio="xMidYMid meet">

<g transform="translate(0.000000,100.000000) scale(0.100000,-0.100000)"
fill="#163E6C" stroke="none">
<path d="M455 869 c-16 -4 -35 -19 -40 -31 -7 -16 -17 -22 -34 -20 -35 4 -82
-44 -75 -74 5 -19 1 -24 -19 -29 -19 -5 -28 -17 -38 -53 -10 -35 -10 -47 -1
-50 7 -2 12 -17 12 -33 0 -20 9 -35 29 -50 19 -14 33 -37 40 -63 10 -37 17
-45 88 -85 73 -42 82 -44 160 -45 61 -1 84 3 88 13 4 9 14 11 31 7 36 -10 86
36 78 71 -5 18 -1 25 19 32 32 12 46 70 27 106 -10 20 -11 27 -1 39 9 10 11
29 6 56 -5 31 -13 44 -32 51 -20 7 -24 14 -19 32 7 28 -41 80 -70 77 -33 -4
-42 0 -47 19 -7 27 -78 47 -93 26 -14 -19 -28 -19 -44 0 -14 17 -21 17 -65 4z
m159 -113 c41 -17 103 -96 112 -143 10 -54 -13 -118 -58 -158 -48 -44 -76 -55
-136 -55 -68 0 -121 33 -151 94 -65 130 16 275 152 276 26 0 63 -6 81 -14z"/>
<path d="M444 695 c-49 -52 -61 -103 -40 -159 26 -67 65 -96 129 -96 70 0 110
25 132 84 21 55 16 104 -17 152 -29 42 -56 54 -120 54 -45 0 -54 -4 -84 -35z
m155 -61 c27 -34 27 -64 -1 -99 -19 -24 -26 -27 -66 -22 -55 6 -76 26 -76 73
0 47 31 74 84 74 30 0 43 -6 59 -26z"/>
<path d="M136 531 c-3 -5 4 -11 17 -15 12 -3 29 -17 38 -32 16 -25 15 -29 -3
-61 -22 -37 -46 -42 -84 -17 -28 19 -39 14 -29 -15 14 -46 114 -79 161 -53 19
10 82 -14 111 -44 7 -7 40 -28 73 -46 48 -26 60 -38 60 -57 0 -35 79 -111 116
-111 16 0 35 4 43 9 11 7 7 13 -17 25 -46 24 -55 46 -32 84 22 35 58 43 80 17
12 -14 40 -21 40 -10 0 17 -50 70 -83 86 -34 18 -40 18 -60 4 -27 -19 -71 -19
-87 0 -14 17 -164 105 -180 105 -5 0 -10 9 -10 20 0 35 -39 100 -66 110 -32
12 -81 13 -88 1z"/>
</g>
</svg>
