<?xml version="1.0" standalone="no"?>
<svg version="1.0" xmlns="http://www.w3.org/2000/svg"
 width="100.000000pt" height="100.000000pt" viewBox="0 0 100.000000 100.000000"
 preserveAspectRatio="xMidYMid meet">

<g transform="translate(0.000000,100.000000) scale(0.100000,-0.100000)"
fill="#163E6C" stroke="none">
<path d="M436 873 c4 -41 3 -44 -6 -23 -15 33 -15 33 -39 20 -23 -12 -51 -70
-51 -106 0 -20 5 -24 33 -25 17 0 41 -4 52 -9 14 -6 -3 -9 -52 -9 l-73 -1 0
-34 c0 -30 3 -35 28 -38 22 -2 27 -8 30 -33 8 -92 14 -114 45 -147 37 -41 82
-53 139 -38 27 8 42 19 48 36 5 13 14 24 19 24 11 0 31 86 31 130 0 27 3 30
30 30 28 0 30 3 30 35 0 24 -5 35 -15 35 -8 0 -17 12 -21 28 -14 69 -37 114
-61 123 -14 5 -27 8 -27 7 -1 -2 -7 -14 -14 -28 -10 -22 -11 -19 -6 23 l6 47
-65 0 -65 0 4 -47z"/>
<path d="M370 414 c0 -4 9 -22 21 -40 l21 -34 29 17 c37 22 37 30 -1 38 -16 4
-32 11 -35 16 -7 10 -35 12 -35 3z"/>
<path d="M565 402 c-16 -10 -32 -18 -34 -19 -2 -1 7 -11 20 -22 25 -20 49 -13
49 15 0 8 5 14 10 14 6 0 10 7 10 15 0 19 -17 18 -55 -3z"/>
<path d="M260 377 c-74 -38 -87 -49 -104 -85 -15 -31 -35 -142 -36 -199 l0
-23 180 0 180 0 0 130 c0 72 -4 130 -9 130 -4 0 -20 -11 -35 -25 -14 -13 -32
-22 -39 -19 -8 3 -24 29 -38 59 -14 31 -30 55 -39 55 -8 0 -35 -10 -60 -23z"/>
<path d="M639 353 c-34 -71 -45 -80 -72 -56 -47 43 -47 43 -47 -96 l0 -131
176 0 177 0 -8 82 c-11 133 -40 182 -132 224 -28 13 -56 24 -61 24 -6 0 -21
-21 -33 -47z m86 -148 c0 -5 -33 -11 -72 -13 -61 -2 -73 0 -73 13 0 13 12 15
73 13 39 -2 72 -7 72 -13z"/>
</g>
</svg>
