<?xml version="1.0" standalone="no"?>
<svg version="1.0" xmlns="http://www.w3.org/2000/svg"
 width="100.000000pt" height="100.000000pt" viewBox="0 0 100.000000 100.000000"
 preserveAspectRatio="xMidYMid meet">

<g transform="translate(0.000000,100.000000) scale(0.100000,-0.100000)"
fill="#163E6C" stroke="none">
<path d="M405 866 c-65 -16 -78 -24 -72 -47 6 -24 1 -24 -30 1 -72 57 -175
-11 -160 -105 4 -23 -1 -48 -15 -77 -72 -148 -36 -337 86 -456 130 -129 317
-156 477 -70 149 79 238 253 211 413 -28 173 -140 296 -307 340 -69 18 -121
18 -190 1z m243 -111 c84 -45 148 -129 167 -214 7 -32 6 -34 -16 -27 -145 44
-178 49 -304 49 -125 0 -164 -7 -292 -48 -29 -9 -30 13 -3 73 16 36 23 42 51
42 43 0 99 56 99 99 0 17 1 31 3 31 1 0 20 7 42 15 27 10 66 14 120 12 66 -3
90 -8 133 -32z m-71 -279 l28 -25 -21 -22 c-46 -45 -159 -31 -159 21 0 51 102
69 152 26z m-260 -72 c29 -18 37 -35 58 -114 14 -53 25 -72 59 -102 34 -32 38
-38 20 -38 -106 0 -246 129 -270 249 l-7 34 59 -7 c32 -4 69 -14 81 -22z m498
-6 c-19 -84 -89 -175 -168 -215 -32 -16 -48 -20 -45 -11 3 7 18 57 33 110 15
53 36 105 46 114 10 9 44 20 76 24 32 4 59 8 61 9 2 0 0 -14 -3 -31z"/>
</g>
</svg>
