<?xml version="1.0" standalone="no"?>
<svg version="1.0" xmlns="http://www.w3.org/2000/svg"
 width="100.000000pt" height="100.000000pt" viewBox="0 0 100.000000 100.000000"
 preserveAspectRatio="xMidYMid meet">

<g transform="translate(0.000000,100.000000) scale(0.100000,-0.100000)"
fill="#163E6C" stroke="none">
<path d="M260 765 c0 -8 5 -15 10 -15 6 0 10 -6 10 -14 0 -10 13 -16 38 -18
l37 -3 -27 -14 c-16 -8 -28 -20 -28 -28 0 -10 -19 -13 -75 -13 l-74 0 -3 -77
-3 -78 -30 0 -30 0 -3 78 -3 77 -29 0 c-30 0 -30 -1 -30 -55 0 -43 4 -59 20
-72 11 -10 20 -23 20 -29 0 -7 -8 -10 -20 -7 -16 4 -20 0 -20 -21 0 -19 5 -26
20 -26 18 0 20 -7 20 -80 0 -79 0 -80 25 -80 23 0 25 4 25 44 0 24 -7 60 -15
80 l-15 36 35 0 35 0 0 -80 0 -80 68 0 69 0 18 -55 19 -55 171 0 172 0 36 -40
c41 -44 81 -56 152 -46 37 6 51 15 82 52 45 56 57 134 26 171 -10 13 -26 33
-35 47 -27 37 -105 53 -168 32 -39 -13 -93 -16 -263 -16 -212 0 -214 0 -225
23 -9 19 -42 123 -42 134 0 3 17 3 37 1 34 -3 38 -6 46 -41 5 -21 17 -41 26
-44 9 -3 25 -13 35 -22 11 -9 17 -11 14 -6 -3 6 -13 34 -21 63 l-16 52 39 0
c37 0 39 -2 46 -35 3 -19 19 -48 35 -65 33 -34 39 -36 39 -15 0 8 -4 15 -9 15
-7 0 -31 73 -31 94 0 3 16 6 35 6 33 0 35 -2 46 -45 6 -25 17 -45 25 -45 7 0
20 -10 28 -22 20 -28 20 -17 1 46 -20 66 -20 66 20 66 33 0 35 -2 46 -45 11
-44 13 -45 50 -45 l39 0 0 105 0 105 -101 0 -100 0 3 28 c2 19 9 28 26 30 25
4 25 3 12 36 l-10 26 -165 0 c-140 0 -165 -2 -165 -15z m651 -426 c34 -42 43
-84 28 -130 -16 -47 -24 -55 -76 -80 l-45 -22 -54 27 c-61 29 -74 51 -74 123
0 40 5 50 40 85 39 39 42 40 97 36 49 -4 59 -9 84 -39z"/>
<path d="M795 306 c-28 -29 -41 -86 -26 -115 18 -33 74 -29 101 8 l21 30 -32
50 c-17 28 -33 51 -35 51 -3 0 -16 -11 -29 -24z"/>
</g>
</svg>
