<?xml version="1.0" standalone="no"?>
<svg version="1.0" xmlns="http://www.w3.org/2000/svg"
 width="100.000000pt" height="100.000000pt" viewBox="0 0 100.000000 100.000000"
 preserveAspectRatio="xMidYMid meet">

<g transform="translate(0.000000,100.000000) scale(0.100000,-0.100000)"
fill="#163E6C" stroke="none">
<path d="M140 835 l0 -95 40 0 c36 0 40 3 40 25 0 25 1 25 90 25 73 0 90 -3
90 -15 0 -10 11 -15 35 -15 l35 0 0 -90 0 -90 -29 0 c-28 0 -28 0 -40 -87 -26
-206 -26 -208 0 -227 13 -9 34 -16 46 -16 17 0 23 -6 23 -21 0 -19 -4 -20 -67
-14 -38 4 -102 10 -143 13 -73 7 -75 8 -78 35 -3 24 -7 27 -43 27 l-40 0 3
-93 3 -92 38 -3 c34 -3 37 -1 37 24 l0 26 108 -8 c136 -11 298 -11 435 0 l107
8 0 -26 c0 -24 4 -26 40 -26 l40 0 0 95 0 95 -39 0 c-36 0 -40 -3 -43 -27 -3
-27 -6 -28 -73 -35 -224 -21 -205 -21 -205 1 0 15 6 21 23 21 55 0 66 43 47
187 -19 144 -18 143 -45 143 -25 0 -25 1 -25 90 l0 90 35 0 c24 0 35 5 35 15
0 12 16 15 85 15 84 0 85 0 85 -25 0 -22 4 -25 40 -25 l40 0 0 95 0 95 -40 0
c-38 0 -40 -2 -40 -30 l0 -30 -85 0 c-78 0 -85 2 -85 20 0 19 -7 20 -110 20
l-110 0 0 -37 c-1 -33 -2 -36 -14 -21 -9 13 -31 18 -87 20 -72 3 -74 4 -77 31
-3 24 -7 27 -43 27 l-39 0 0 -95z"/>
</g>
</svg>
