<?xml version="1.0" standalone="no"?>
<svg version="1.0" xmlns="http://www.w3.org/2000/svg"
 width="100.000000pt" height="100.000000pt" viewBox="0 0 100.000000 100.000000"
 preserveAspectRatio="xMidYMid meet">

<g transform="translate(0.000000,100.000000) scale(0.100000,-0.100000)"
fill="#163E6C" stroke="none">
<path d="M447 873 c-10 -3 -22 -16 -28 -30 -7 -20 -14 -24 -33 -19 -29 7 -71
-35 -71 -72 0 -19 -6 -27 -24 -32 -18 -4 -27 -16 -34 -39 -11 -45 -4 -58 35
-63 18 -3 40 -8 48 -12 12 -5 20 6 35 49 27 80 90 125 175 125 43 -1 105 -35
139 -78 57 -72 54 -156 -7 -224 -20 -23 -51 -47 -69 -55 -37 -15 -101 -17
-136 -4 -22 9 -25 7 -30 -22 -4 -18 -9 -42 -13 -54 -5 -19 -1 -23 37 -33 36
-10 44 -9 51 4 11 20 34 21 45 1 12 -21 93 0 93 25 0 21 20 31 48 23 25 -6 77
41 68 62 -8 22 4 45 24 45 24 0 38 72 20 106 -10 19 -11 26 -1 38 9 10 11 29
6 56 -5 31 -13 44 -32 51 -20 7 -24 14 -19 31 8 35 -38 79 -75 71 -24 -5 -30
-1 -38 20 -8 19 -20 28 -48 33 -25 5 -38 3 -41 -5 -5 -14 -39 -15 -47 -1 -6
10 -45 12 -78 3z"/>
<path d="M495 732 c-53 -18 -95 -75 -95 -131 0 -48 36 -119 71 -136 32 -17 96
-20 132 -6 37 14 70 67 75 122 10 108 -82 183 -183 151z m99 -83 c33 -26 36
-79 6 -109 -46 -46 -140 -9 -140 54 0 65 79 98 134 55z"/>
<path d="M175 571 c-111 -50 -138 -171 -57 -258 47 -51 70 -63 122 -63 59 0
105 23 135 68 68 103 28 231 -83 262 -51 14 -71 12 -117 -9z m130 -35 c57 -24
87 -116 56 -174 -21 -39 -81 -77 -122 -77 -31 0 -45 8 -78 42 -36 36 -41 47
-41 86 0 109 84 165 185 123z"/>
<path d="M207 488 c-11 -40 51 -128 89 -128 43 0 57 78 19 112 -37 33 -46 38
-73 38 -22 0 -31 -6 -35 -22z"/>
<path d="M360 245 c-10 -12 -4 -25 31 -74 46 -63 59 -71 79 -47 13 16 11 20
-39 89 -36 50 -51 56 -71 32z"/>
</g>
</svg>
