<?xml version="1.0" standalone="no"?>
<svg version="1.0" xmlns="http://www.w3.org/2000/svg"
 width="100.000000pt" height="100.000000pt" viewBox="0 0 100.000000 100.000000"
 preserveAspectRatio="xMidYMid meet">

<g transform="translate(0.000000,100.000000) scale(0.100000,-0.100000)"
fill="#163E6C" stroke="none">
<path d="M432 890 c-54 -8 -192 -68 -226 -98 -35 -32 -97 -133 -117 -189 -13
-38 -19 -83 -19 -140 0 -254 195 -435 456 -421 72 4 93 10 167 46 102 50 159
109 200 207 131 312 -126 644 -461 595z m210 -152 c118 -79 169 -159 171 -268
2 -98 -53 -199 -143 -265 -115 -85 -289 -65 -393 45 -89 94 -115 192 -83 304
14 46 28 69 75 114 31 32 82 70 112 85 48 26 62 28 130 24 68 -3 83 -8 131
-39z"/>
<path d="M406 715 c-58 -22 -103 -60 -144 -123 -34 -51 -37 -61 -37 -128 0
-65 3 -76 34 -120 54 -78 105 -122 163 -139 128 -38 220 3 314 140 36 52 45
153 19 209 -25 53 -92 124 -139 148 -53 27 -156 33 -210 13z m179 -54 c134
-62 172 -221 78 -330 -38 -45 -120 -91 -163 -91 -28 0 -98 30 -144 63 -35 24
-76 109 -76 157 0 159 163 267 305 201z"/>
<path d="M425 626 c-75 -34 -120 -128 -97 -205 46 -152 245 -175 323 -38 28
52 24 138 -11 186 -43 61 -145 88 -215 57z m33 -59 c2 -12 -3 -17 -17 -17 -12
0 -21 6 -21 13 0 31 32 34 38 4z m117 2 c0 -7 -8 -15 -17 -17 -18 -3 -25 18
-11 32 10 10 28 1 28 -15z m-41 -60 c30 -23 33 -45 10 -77 -18 -26 -65 -30
-88 -6 -24 23 -20 70 6 88 29 21 40 20 72 -5z m-136 -42 c2 -12 -3 -17 -17
-17 -12 0 -21 6 -21 13 0 31 32 34 38 4z m238 12 c9 -16 -12 -33 -31 -25 -14
5 -15 9 -5 21 15 18 26 19 36 4z m-179 -105 c8 -21 -13 -42 -28 -27 -13 13 -5
43 11 43 6 0 13 -7 17 -16z m120 0 c7 -18 -17 -38 -31 -24 -11 11 -1 40 14 40
6 0 13 -7 17 -16z"/>
</g>
</svg>
