<?xml version="1.0" standalone="no"?>
<svg version="1.0" xmlns="http://www.w3.org/2000/svg"
 width="93.000000pt" height="90.000000pt" viewBox="0 0 93.000000 90.000000"
 preserveAspectRatio="xMidYMid meet">

<g transform="translate(0.000000,90.000000) scale(0.100000,-0.100000)"
fill="#163E6C" stroke="none">
<path d="M147 783 c-4 -3 -7 -53 -7 -110 l0 -103 -43 0 c-66 0 -77 -18 -77
-123 0 -80 2 -87 20 -87 17 0 20 7 20 53 0 45 4 57 28 80 19 18 39 27 60 27
l32 0 0 93 c0 86 2 95 24 116 21 20 32 22 100 19 77 -3 81 -2 70 26 -5 13 -25
16 -113 16 -59 0 -111 -3 -114 -7z"/>
<path d="M220 590 l0 -110 -48 0 c-26 0 -53 -5 -60 -12 -8 -8 -12 -46 -12
-105 0 -86 1 -93 20 -93 17 0 20 7 20 53 0 45 4 57 28 80 19 18 39 27 60 27
l32 0 0 93 c0 85 2 96 23 115 20 19 35 22 100 22 75 0 77 1 67 20 -10 18 -21
20 -120 20 l-110 0 0 -110z"/>
<path d="M307 614 c-4 -4 -7 -64 -7 -133 -1 -91 -3 -121 -11 -108 -12 20 -78
24 -97 5 -8 -8 -12 -45 -12 -100 0 -87 0 -88 25 -88 18 0 25 5 25 20 0 29 35
60 68 60 33 0 72 -32 72 -60 0 -16 9 -19 65 -22 54 -2 65 0 63 12 -7 50 38
100 91 100 27 0 81 -47 81 -71 0 -10 4 -19 9 -19 5 0 11 -9 14 -20 4 -15 14
-20 39 -20 66 0 168 13 168 21 0 5 -38 9 -85 9 l-85 0 0 135 c0 128 -1 135
-20 135 -18 0 -20 7 -20 68 l0 67 -32 -1 -33 -1 -5 -139 c-3 -76 -7 -121 -8
-99 -2 22 -22 87 -45 145 l-42 105 -106 3 c-58 1 -108 -1 -112 -4z m229 -119
c19 -49 34 -107 34 -129 l0 -39 -39 7 c-74 12 -89 22 -101 68 -17 65 -18 68
-35 68 -17 0 -17 0 -6 -57 9 -46 6 -48 -33 -33 -26 9 -26 11 -26 110 l0 101
86 -3 86 -3 34 -90z"/>
<path d="M530 260 c-27 -27 -25 -66 5 -95 29 -30 64 -32 96 -7 28 23 30 73 4
102 -24 26 -79 26 -105 0z m85 -38 c8 -20 -19 -47 -39 -39 -26 10 -32 38 -12
53 21 15 42 9 51 -14z"/>
<path d="M275 248 c-25 -14 -35 -28 -35 -50 0 -24 35 -58 60 -58 24 0 60 34
60 55 0 17 -43 65 -57 65 -4 0 -17 -6 -28 -12z m51 -39 c3 -6 -1 -18 -10 -27
-15 -15 -17 -15 -32 0 -9 9 -13 21 -10 27 9 14 43 14 52 0z"/>
</g>
</svg>
