<?xml version="1.0" standalone="no"?>
<svg version="1.0" xmlns="http://www.w3.org/2000/svg"
 width="100.000000pt" height="100.000000pt" viewBox="0 0 100.000000 100.000000"
 preserveAspectRatio="xMidYMid meet">

<g transform="translate(0.000000,100.000000) scale(0.100000,-0.100000)"
fill="#163E6C" stroke="none">
<path d="M284 834 c-15 -22 -22 -24 -54 -19 -32 5 -42 2 -66 -20 -17 -16 -28
-37 -29 -53 0 -22 -4 -27 -22 -25 -24 3 -36 -9 -51 -54 -7 -20 -7 -35 -1 -38
14 -10 11 -42 -6 -49 -25 -9 -16 -106 10 -106 17 0 28 -31 15 -44 -15 -15 -13
-21 16 -56 17 -20 32 -29 44 -25 20 6 45 -19 37 -38 -3 -8 12 -22 40 -37 41
-22 46 -22 55 -7 12 23 35 21 41 -3 4 -16 14 -20 51 -20 41 0 48 3 56 25 9 23
14 25 45 19 48 -9 89 17 82 52 -4 25 16 45 38 38 12 -5 55 56 55 78 0 9 -7 18
-15 22 -22 8 -18 34 5 41 16 5 20 15 20 51 0 38 -4 46 -25 56 -29 13 -32 33
-8 46 15 9 14 12 -5 33 -12 12 -24 31 -28 41 -4 13 -13 18 -32 16 -23 -3 -28
1 -30 23 -2 20 -12 30 -45 43 -27 11 -44 13 -51 6 -17 -17 -48 -11 -53 10 -8
31 -68 28 -89 -6z m122 -109 c142 -42 180 -219 68 -322 -70 -65 -169 -69 -245
-9 -66 53 -89 129 -64 213 19 62 54 99 114 117 60 19 68 19 127 1z"/>
<path d="M320 692 c-31 -5 -100 -59 -100 -78 0 -8 -4 -14 -10 -14 -20 0 -11
-97 13 -134 23 -36 78 -66 123 -66 36 0 92 26 114 52 27 32 35 101 19 150 -19
59 -94 102 -159 90z m89 -97 c18 -27 22 -42 17 -69 -8 -44 -27 -58 -77 -60
-50 -1 -79 29 -79 82 0 49 32 82 79 82 30 0 40 -6 60 -35z"/>
<path d="M699 473 c-1 -5 -1 -15 0 -24 1 -9 -5 -22 -14 -29 -9 -7 -22 -28 -30
-47 -8 -18 -21 -33 -29 -33 -9 0 -16 -9 -16 -20 0 -13 7 -20 19 -20 13 0 21
-9 26 -30 4 -17 16 -35 27 -41 14 -8 19 -18 15 -34 -4 -24 17 -43 28 -25 8 13
132 13 140 0 11 -18 32 1 28 25 -4 16 1 26 15 34 11 6 22 24 25 41 5 21 12 30
27 30 13 0 20 7 20 20 0 11 -7 20 -15 20 -9 0 -21 12 -27 28 -7 15 -21 37 -31
49 -11 12 -17 29 -13 38 6 18 -16 31 -35 19 -17 -10 -129 -12 -135 -2 -6 10
-24 10 -25 1z m159 -99 c29 -33 28 -65 -4 -103 -34 -41 -79 -42 -117 -3 -15
15 -27 38 -27 50 0 83 92 118 148 56z"/>
</g>
</svg>
